<svg xmlns="http://www.w3.org/2000/svg" width="600" height="260">
  <rect x="0" y="0" width="600" height="260" fill="#ffffff" rx="12" ry="12"/>
  <text x="28" y="40" fill="#24292f" font-family="Segoe UI, Arial, sans-serif" font-size="20" font-weight="600">
    Top Languages by Repo
  </text>
  <rect x="40" y="48" width="12" height="12" rx="2" ry="2" fill="#3572A5" />
  <text x="58" y="58" fill="#24292f" font-family="Segoe UI, Arial, sans-serif" font-size="13">Shell – 58.2%</text>
  <rect x="270.0" y="60" width="176.96" height="14" rx="4" ry="4" fill="#3572A5" />
  <rect x="40" y="70" width="12" height="12" rx="2" ry="2" fill="#89e051" />
  <text x="58" y="80" fill="#24292f" font-family="Segoe UI, Arial, sans-serif" font-size="13">Python – 33.7%</text>
  <rect x="270.0" y="84" width="102.36" height="14" rx="4" ry="4" fill="#89e051" />
  <rect x="40" y="92" width="12" height="12" rx="2" ry="2" fill="#e34c26" />
  <text x="58" y="102" fill="#24292f" font-family="Segoe UI, Arial, sans-serif" font-size="13">JavaScript – 6.9%</text>
  <rect x="270.0" y="108" width="20.90" height="14" rx="4" ry="4" fill="#e34c26" />
  <rect x="40" y="114" width="12" height="12" rx="2" ry="2" fill="#f1e05a" />
  <text x="58" y="124" fill="#24292f" font-family="Segoe UI, Arial, sans-serif" font-size="13">HTML – 1.2%</text>
  <rect x="270.0" y="132" width="3.77" height="14" rx="4" ry="4" fill="#f1e05a" />
</svg>